<?xml version="1.0" encoding="utf-8"?>
<!-- Generator: Adobe Illustrator 23.1.0, SVG Export Plug-In . SVG Version: 6.00 Build 0)  -->
<svg version="1.1" xmlns="http://www.w3.org/2000/svg" xmlns:xlink="http://www.w3.org/1999/xlink" x="0px" y="0px"
	 viewBox="0 0 3195.3 877.5" style="enable-background:new 0 0 3195.3 877.5;" xml:space="preserve">
<style type="text/css">
	.st0{fill:#FFFFFF;}
</style>
<g id="guides">
	<g>
		<g>
		</g>
	</g>
</g>
<g id="simbolo">
	<path class="st0" d="M195.5,687.1c-44.3,0-83.3-22.6-106.1-56.9v88.7c0,58.6,47.5,106.1,106.1,106.1c58.6,0,106.1-47.5,106.1-106.1
		v-88.7C278.8,664.5,239.8,687.1,195.5,687.1z"/>
	<circle class="st0" cx="195.5" cy="559.8" r="106.1"/>
	<path class="st0" d="M195.5,432.5c44.3,0,83.3,22.6,106.1,56.9v-88.8c0-58.6-47.5-106.1-106.1-106.1
		c-58.6,0-106.1,47.5-106.1,106.1v88.8C112.2,455.1,151.2,432.5,195.5,432.5z"/>
	<path class="st0" d="M566.9,687.1c-53.2,0-98.7-32.6-117.8-78.9c-6.5,12.6-15.4,23.8-26.2,32.9l0,0
		c-44.9,37.7-50.7,104.6-13.1,149.5c37.7,44.9,104.6,50.7,149.5,13.1l0,0c48.6-40.9,84.7-95.9,102.1-158.5
		C638.1,670.9,604.4,687.1,566.9,687.1z"/>
	<circle class="st0" cx="566.9" cy="559.8" r="106.1"/>
	<path class="st0" d="M566.9,432.5c44.3,0,83.3,22.6,106.1,56.9v-88.8c0-58.6-47.5-106.1-106.1-106.1
		c-58.6,0-106.1,47.5-106.1,106.1v88.8C483.6,455.1,522.6,432.5,566.9,432.5z"/>
	<path class="st0" d="M1150.4,330.1L1150.4,330.1c-39-22.6-84.3-35.5-132.6-35.5c-115.1,0-213.1,73.3-249.8,175.9
		c23.1-23.4,55.2-37.9,90.7-37.9c57.2,0,105.7,37.8,121.7,89.8c3.2-3.2,6.8-5.9,10.7-8.2c0.1-0.1,0.2-0.1,0.3-0.2
		c0.1-0.1,0.2-0.1,0.3-0.2c7.7-4.4,16.7-6.9,26.2-6.9c9.6,0,18.5,2.5,26.3,7c0.1,0,0.2,0.1,0.2,0.1c50.7,29.3,115.6,11.9,144.9-38.8
		C1218.5,424.3,1201.1,359.4,1150.4,330.1z"/>
	<circle class="st0" cx="858.6" cy="559.8" r="106.1"/>
	<path class="st0" d="M1189.2,644.6c-29.3-50.7-94.2-68.1-144.9-38.8c-0.1,0-0.2,0.1-0.2,0.1c-7.8,4.4-16.7,7-26.3,7
		c-14.6,0-27.9-5.9-37.5-15.5c-16,52-64.4,89.8-121.7,89.8c-35.5,0-67.6-14.5-90.7-37.9C804.6,751.7,902.6,825,1017.7,825
		c48.3,0,93.6-12.9,132.6-35.5l0,0C1201.1,760.2,1218.5,695.3,1189.2,644.6z"/>
	<circle class="st0" cx="566.8" cy="135.4" r="106.1"/>
	<circle class="st0" cx="195.5" cy="135.4" r="106.1"/>
</g>
<g id="descritivo">
	<g>
		<path class="st0" d="M1361.6,453.6h18.6v106.1h-18.6V453.6z"/>
		<path class="st0" d="M1445.2,453.6h17.3l56.8,73.3v-73.3h18.3v106.1H1522l-58.5-75.4v75.4h-18.3V453.6z"/>
		<path class="st0" d="M1594.5,544.2l11.2-13.3c10.2,8.8,20.3,13.8,33.5,13.8c11.5,0,18.8-5.3,18.8-13.3V531
			c0-7.6-4.2-11.7-23.9-16.2c-22.6-5.5-35.3-12.1-35.3-31.7v-0.3c0-18.2,15.1-30.8,36.2-30.8c15.5,0,27.7,4.7,38.5,13.3l-10,14.1
			c-9.5-7.1-19.1-10.9-28.8-10.9c-10.9,0-17.3,5.6-17.3,12.6v0.3c0,8.2,4.8,11.8,25.1,16.7c22.4,5.5,34.1,13.5,34.1,31.1v0.3
			c0,19.8-15.6,31.7-37.9,31.7C1622.5,561.2,1607.2,555.5,1594.5,544.2z"/>
		<path class="st0" d="M1759,470.9h-33.6v-17.3h86.1v17.3h-33.6v88.8H1759V470.9z"/>
		<path class="st0" d="M1868.8,453.6h18.6v106.1h-18.6V453.6z"/>
		<path class="st0" d="M1979.4,470.9h-33.6v-17.3h86.1v17.3h-33.6v88.8h-18.8V470.9z"/>
		<path class="st0" d="M2087.3,514.6v-61.1h18.6v60.3c0,19.7,10.2,30.3,26.8,30.3c16.5,0,26.7-10,26.7-29.5v-61.1h18.6v60.1
			c0,31.7-17.9,47.6-45.6,47.6C2104.9,561.3,2087.3,545.4,2087.3,514.6z"/>
		<path class="st0" d="M2269.8,470.9h-33.6v-17.3h86.1v17.3h-33.6v88.8h-18.8V470.9z"/>
		<path class="st0" d="M2363.9,506.9v-0.3c0-29.8,23-54.8,55.6-54.8s55.3,24.7,55.3,54.5v0.3c0,29.8-23,54.8-55.6,54.8
			S2363.9,536.8,2363.9,506.9z M2455.2,506.9v-0.3c0-20.6-15-37.7-36.1-37.7s-35.8,16.8-35.8,37.4v0.3c0,20.6,15,37.7,36.1,37.7
			S2455.2,527.5,2455.2,506.9z"/>
	</g>
</g>
<g id="nome">
	<g>
		<path class="st0" d="M1361.5,646.1h21.8v100.2v25.1c0.1,23.1-17.3,26.4-46.5,16.7v35.5c72.2,14.9,104.6-1.5,104.6-52.2V646.1h21.1
			v-32.7h-100.9V646.1z"/>
		<polygon class="st0" points="2008,646.1 2008,628.8 2008,613.5 1999.5,613.5 1940.7,613.5 1932.2,613.5 1932.2,646.1 
			1940.7,646.1 1950,646.1 1950,791.4 1936,791.4 1936,824 2022,824 2022,791.4 2008,791.4 		"/>
		<path class="st0" d="M1549.2,661.7c-52.3,0-83.7,37.3-83.7,83.4c0,46.1,30.1,83.4,83.7,83.4c54,0,83.7-37.3,83.7-83.4
			C1632.9,699,1603.6,661.7,1549.2,661.7z M1573.1,760.9c0,13.8-4.5,33-23.4,33h-1.1c-18.6,0-23.4-19.2-23.4-33v-29.5
			c0-13.8,5.2-35.8,23.4-35.8h1.1c20.2,0,23.4,22,23.4,35.8V760.9z"/>
		<path class="st0" d="M2194.8,756.4c0-55.2-20.2-94.7-75.8-94.7c-53.7,0-85.8,37.3-85.8,83.4c0,46.1,30.8,83.4,85.8,83.4
			c37.7,0,58.2-16.4,70.5-42l-25.7-13.6c-4.7,10-20.8,19.8-37.8,18.4c-19.1-1.7-30.3-16.9-30.3-31v-3.9H2194.8z M2094.2,729.1
			c0.3-14.1,5.1-35.3,21.3-35.3h1c17.9,0,21.1,21.2,21.3,35.3H2094.2z"/>
		<path class="st0" d="M2672.2,756.4c0-55.2-20.2-94.7-75.8-94.7c-53.7,0-85.8,37.3-85.8,83.4c0,46.1,30.8,83.4,85.8,83.4
			c37.7,0,58.2-16.4,70.5-42l-25.7-13.6c-4.7,10-20.8,19.8-37.8,18.4c-19.1-1.7-30.3-16.9-30.3-31v-3.9H2672.2z M2571.6,729.1
			c0.3-14.1,5.1-35.3,21.3-35.3h1c17.9,0,21.1,21.2,21.3,35.3H2571.6z"/>
		<path class="st0" d="M3092.2,791.3c-19.9-1.7-31.5-16.9-31.5-31v-3.9H3164c0-55.2-21-94.7-79-94.7c-55.9,0-89.4,37.3-89.4,83.4
			c0,46.1,32.1,83.4,89.4,83.4c39.3,0,60.6-16.4,73.4-42l-26.8-13.6C3126.7,783,3110,792.8,3092.2,791.3z M3081.4,693.8h1.1
			c18.6,0,22,21.2,22.2,35.3h-45.4C3059.5,715,3064.6,693.8,3081.4,693.8z"/>
		<polygon class="st0" points="1549.2,630.8 1569.1,655.1 1597.8,655.1 1571.7,613.2 1563.6,613.2 1534.9,613.2 1526.8,613.2 
			1500.7,655.1 1529.4,655.1 		"/>
		<path class="st0" d="M1868.7,627.6c-13.9-13.5-31.8-21.4-53.5-21.4c-68.3,0-98.2,49.7-98.2,111.1s29,111.1,98.2,111.1
			c52.5,0,78.3-21.1,89-56.8c-11.9-6.7-31.5-17.7-43.2-24.1c-4.3,23.1-11.6,39-39.5,39c-32.3,0-41.2-31-41.2-69.2
			s9.7-69.2,41.2-69.2c20.3,0,30.5,15.7,35.6,42.4l-0.2,2.9l0.7-0.1c0,0,0,0.1,0,0.1c0.7-0.2,1.5-0.3,2.3-0.5l49-7.7v-71.7h-27.2
			C1881.7,613.4,1874.7,621.2,1868.7,627.6z"/>
		<path class="st0" d="M2959.8,779.9v-81.1h22.2v-32.7h-23.7v-46h-37l-1.7,21.5c-1.4,17.6-15,31.1-31.3,31.1h-2.2v26.1h14.3v100.2
			c0.1,31.8,34.7,34.6,85.1,24.2v-33.4l-14.6,1.2C2964.9,791.5,2959.8,786.4,2959.8,779.9z"/>
		<path class="st0" d="M2861.9,702.7c0-48.8-74.5-51.3-101.2-5.7v-20.5v-10.4h-73.3v32.7h15.6v92.6h-15.6V824h88.9v-32.7h-15.6
			v-70.4c0.4-20.8,39.5-22.6,43.3-5.3v75.7h-15.5V824h89.2v-32.7h-15.7V702.7z"/>
		<path class="st0" d="M2482.7,702.7c0-48.7-74.2-51.3-101-6c-5.9-43-75.3-43.4-100.8,0.3v-20.5v-10.4h-73.3v32.7h15.6v92.6h-15.6
			V824h88.9v-32.7h-15.6v-70.4c0.4-20.8,39.5-22.6,43.3-5.3v75.7h-15.5V824h89.2v-32.7h-15.7v-74.4c4.9-17,39.1-17.5,42.7-1.3v75.7
			h-14.7V824h93v-32.7h-20.3V702.7z"/>
	</g>
</g>
<g id="Layer_1">
</g>
</svg>
