<?xml version="1.0"?>
<svg xmlns="http://www.w3.org/2000/svg" id="Outline" viewBox="0 0 512 512" width="36.156" height="37.827"><g><path d="M493.218,209.944l0,0L416,143.4V128a40.045,40.045,0,0,0-40-40H351.714L277.566,24.106a32.714,32.714,0,0,0-43.072-.052L160.286,88H104a40.045,40.045,0,0,0-40,40v32a7.992,7.992,0,0,0,4.432,7.152L18.778,209.939l0,0A7.977,7.977,0,0,0,16,216V488h.02A7.934,7.934,0,0,0,24,496H488a7.934,7.934,0,0,0,7.98-8H496V216A7.977,7.977,0,0,0,493.218,209.944ZM416,224h52.686L416,276.686Zm64,11.314V470.546L353.647,361.667ZM466.461,208H416V164.517ZM376,104a24.321,24.321,0,0,1,24,24V292.686l-58.507,58.507-63.927-55.087a32.714,32.714,0,0,0-43.072-.052l-63.987,55.139L112,292.686V168H344a8,8,0,0,0,8-8V127.417C352,114.505,362.767,104,376,104ZM96,168v40H45.539l46.419-40ZM43.314,224H96v52.686ZM158.352,361.666,32,470.546V235.314ZM245,36.122a16.719,16.719,0,0,1,22.063.053L327.2,88H184.8ZM80,128a24.028,24.028,0,0,1,24-24H343.842A38.834,38.834,0,0,0,336,127.417V152H80ZM45.539,480,245,308.122a16.721,16.721,0,0,1,22.063.053L466.461,480Z" data-original="#000000" class="active-path" data-old_color="#000000" fill="#B81765"/><path d="M224,216a8,8,0,0,0,8,8H360a8,8,0,0,0,0-16H232A8,8,0,0,0,224,216Z" data-original="#000000" class="active-path" data-old_color="#000000" fill="#B81765"/><path d="M312,240H152a8,8,0,0,0,0,16H312a8,8,0,0,0,0-16Z" data-original="#000000" class="active-path" data-old_color="#000000" fill="#B81765"/><path d="M152,224h48a8,8,0,0,0,0-16H152a8,8,0,0,0,0,16Z" data-original="#000000" class="active-path" data-old_color="#000000" fill="#B81765"/></g> </svg>
