<?xml version="1.0"?>
<svg xmlns="http://www.w3.org/2000/svg" xmlns:xlink="http://www.w3.org/1999/xlink" version="1.1" id="Capa_1" x="0px" y="0px" viewBox="0 0 497.694 497.694" style="enable-background:new 0 0 497.694 497.694;" xml:space="preserve" width="33" height="38.92"><g><g>
	<g>
		<g>
			<path d="M451.012,0H45.929c-9.788,0-17.318,7.529-17.318,17.318v463.059c0,9.035,7.529,17.318,17.318,17.318h405.835     c9.035,0,17.318-7.529,17.318-17.318V17.318C468.329,7.529,460.8,0,451.012,0z M454.024,479.623h-0.753     c0,0.753-0.753,2.259-2.259,2.259H45.929c-0.753,0-2.259-0.753-2.259-2.259V17.318c0-1.506,0.753-2.259,2.259-2.259h405.835     c0.753,0,2.259,0.753,2.259,2.259V479.623z" data-original="#000000" class="active-path" data-old_color="#000000" fill="#B81765"/>
			<path d="M86.588,239.435h141.553c4.518,0,7.529-3.012,7.529-7.529v-42.918c0-28.612-23.341-51.953-51.953-51.953h-12.047     c27.106-7.529,44.424-35.388,37.647-64c-4.518-20.329-20.329-36.141-39.906-39.906c-38.4-9.035-73.035,24.847-64,64.753     c4.518,18.824,18.824,34.635,37.647,39.153h-12.047c-28.612,0-51.953,23.341-51.953,51.953v42.918     C79.059,235.671,82.824,239.435,86.588,239.435z M119.718,94.118c-6.024-27.859,18.071-52.706,46.682-46.682     c14.306,3.012,25.6,15.059,28.612,28.612c6.024,28.612-18.823,52.706-46.682,46.682     C134.777,119.718,122.729,108.424,119.718,94.118z M131.012,152.094h53.459c20.329,0,36.894,16.565,36.894,36.894v35.388h-21.082     v-20.329c0-4.518-3.012-7.529-7.529-7.529s-7.529,3.012-7.529,7.529v20.329h-55.718v-20.329c0-4.518-3.012-7.529-7.529-7.529     c-4.518,0-7.529,3.012-7.529,7.529v20.329H94.118c0,0,0-35.388,0-35.388C94.118,168.659,110.682,152.094,131.012,152.094z" data-original="#000000" class="active-path" data-old_color="#000000" fill="#B81765"/>
			<path d="M414.871,290.635H77.553c-4.518,0-7.529,3.012-7.529,7.529s3.012,7.529,7.529,7.529h337.318     c4.518,0,7.529-3.012,7.529-7.529S418.635,290.635,414.871,290.635z" data-original="#000000" class="active-path" data-old_color="#000000" fill="#B81765"/>
			<path d="M414.871,353.129H77.553c-4.518,0-7.529,3.012-7.529,7.529s3.012,7.529,7.529,7.529h337.318     c4.518,0,7.529-3.012,7.529-7.529S418.635,353.129,414.871,353.129z" data-original="#000000" class="active-path" data-old_color="#000000" fill="#B81765"/>
			<path d="M414.871,414.871H77.553c-4.518,0-7.529,3.012-7.529,7.529s3.012,7.529,7.529,7.529h337.318     c4.518,0,7.529-3.012,7.529-7.529S418.635,414.871,414.871,414.871z" data-original="#000000" class="active-path" data-old_color="#000000" fill="#B81765"/>
			<path d="M269.553,126.494h29.365c4.518,0,7.529-3.012,7.529-7.529c0-4.518-3.012-7.529-7.529-7.529h-29.365     c-4.518,0-7.529,3.012-7.529,7.529C262.024,123.482,265.788,126.494,269.553,126.494z" data-original="#000000" class="active-path" data-old_color="#000000" fill="#B81765"/>
			<path d="M269.553,201.788h29.365c4.518,0,7.529-3.012,7.529-7.529c0-4.518-3.012-7.529-7.529-7.529h-29.365     c-4.518,0-7.529,3.012-7.529,7.529C262.024,198.023,265.788,201.788,269.553,201.788z" data-original="#000000" class="active-path" data-old_color="#000000" fill="#B81765"/>
			<path d="M269.553,236.424h86.588c4.518,0,7.529-3.012,7.529-7.529s-3.012-7.529-7.529-7.529h-86.588     c-4.518,0-7.529,3.012-7.529,7.529C262.024,232.659,265.788,236.424,269.553,236.424z" data-original="#000000" class="active-path" data-old_color="#000000" fill="#B81765"/>
			<path d="M421.647,111.435h-85.835c-4.518,0-7.529,3.012-7.529,7.529c0,4.518,3.012,7.529,7.529,7.529h85.835     c4.518,0,7.529-3.012,7.529-7.529C429.176,114.447,426.165,111.435,421.647,111.435z" data-original="#000000" class="active-path" data-old_color="#000000" fill="#B81765"/>
			<path d="M421.647,186.729h-85.835c-4.518,0-7.529,3.012-7.529,7.529c0,4.518,3.012,7.529,7.529,7.529h85.835     c4.518,0,7.529-3.012,7.529-7.529C429.176,189.741,426.165,186.729,421.647,186.729z" data-original="#000000" class="active-path" data-old_color="#000000" fill="#B81765"/>
			<path d="M269.553,164.894h86.588c4.518,0,7.529-3.012,7.529-7.529s-3.012-7.529-7.529-7.529h-86.588     c-4.518,0-7.529,3.012-7.529,7.529S265.788,164.894,269.553,164.894z" data-original="#000000" class="active-path" data-old_color="#000000" fill="#B81765"/>
			<path d="M421.647,149.835h-29.365c-4.518,0-7.529,3.012-7.529,7.529s3.012,7.529,7.529,7.529h29.365     c4.518,0,7.529-3.012,7.529-7.529S426.165,149.835,421.647,149.835z" data-original="#000000" class="active-path" data-old_color="#000000" fill="#B81765"/>
			<path d="M421.647,221.365h-29.365c-4.518,0-7.529,3.012-7.529,7.529s3.012,7.529,7.529,7.529h29.365     c4.518,0,7.529-3.012,7.529-7.529S426.165,221.365,421.647,221.365z" data-original="#000000" class="active-path" data-old_color="#000000" fill="#B81765"/>
		</g>
	</g>
</g></g> </svg>
