<svg xmlns="http://www.w3.org/2000/svg" xmlns:xlink="http://www.w3.org/1999/xlink" width="307" height="548" viewBox="0 0 307 548">
  <defs>
    <clipPath id="clip-path">
      <rect id="Retângulo_17" data-name="Retângulo 17" width="66.287" height="66.301" transform="translate(46.882) rotate(45)" fill="#04b2d9"/>
    </clipPath>
  </defs>
  <g id="Grupo_71" data-name="Grupo 71" transform="translate(-27 -35)">
    <text id="Seja_bem-vindo_a_Good_Fit" data-name="Seja bem-vindo a Good Fit" transform="translate(27 181)" fill="#2a2a2a" font-size="21" font-family="Raleway-Bold, Raleway" font-weight="700"><tspan x="0" y="0">Seja bem-vindo a </tspan><tspan y="0" fill="#04b2d9">Good Fit</tspan></text>
    <text id="Entre_para_acessar_a_plataforma" data-name="Entre para acessar a plataforma" transform="translate(27 202)" fill="#828181" font-size="14" font-family="Raleway-Light, Raleway" font-weight="300"><tspan x="0" y="0">Entre para acessar a plataforma</tspan></text>
    <g id="Retângulo_8" data-name="Retângulo 8" transform="translate(27 224.945)" fill="#fff" stroke="#828181" stroke-width="1" opacity="0.64">
      <rect width="306" height="44" stroke="none"/>
      <rect x="0.5" y="0.5" width="305" height="43" fill="none"/>
    </g>
    <g id="Caminho_25" data-name="Caminho 25" transform="translate(27 448)" fill="none">
      <path d="M0,0H306V44H0Z" stroke="none"/>
      <path d="M 1 1 L 1 43 L 305 43 L 305 1 L 1 1 M 0 0 L 306 0 L 306 44 L 0 44 L 0 0 Z" stroke="none" fill="#023373"/>
    </g>
    <g id="Retângulo_9" data-name="Retângulo 9" transform="translate(27 287.945)" fill="#fff" stroke="#828181" stroke-width="1" opacity="0.64">
      <rect width="306" height="44" stroke="none"/>
      <rect x="0.5" y="0.5" width="305" height="43" fill="none"/>
    </g>
    <path id="Caminho_24" data-name="Caminho 24" d="M0,0H306V44H0Z" transform="translate(27 379)" fill="#04b2d9"/>
    <text id="Email" transform="translate(44 252.945)" fill="#828181" font-size="14" font-family="Raleway-Medium, Raleway" font-weight="500"><tspan x="0" y="0">Email</tspan></text>
    <text id="Senha" transform="translate(44 315.945)" fill="#828181" font-size="14" font-family="Raleway-Medium, Raleway" font-weight="500"><tspan x="0" y="0">Senha</tspan></text>
    <g id="Grupo_70" data-name="Grupo 70" transform="translate(0 -22)">
      <g id="Retângulo_11" data-name="Retângulo 11" transform="translate(27 561)" fill="none" stroke="#828181" stroke-width="1" opacity="0.64">
        <rect width="306" height="44" stroke="none"/>
        <rect x="0.5" y="0.5" width="305" height="43" fill="none"/>
      </g>
      <text id="Cadastre-se" transform="translate(180 588)" fill="#828181" font-size="14" font-family="Raleway-SemiBold, Raleway" font-weight="600"><tspan x="-40.369" y="0">Cadastre-se</tspan></text>
    </g>
    <text id="Código_de_cadastro" data-name="Código de cadastro" transform="translate(180 475)" fill="#023373" font-size="14" font-family="Raleway-SemiBold, Raleway" font-weight="600"><tspan x="-64.813" y="0">Código de cadastro</tspan></text>
    <text id="Entrar" transform="translate(180 405.945)" fill="#fff" font-size="14" font-family="Raleway-SemiBold, Raleway" font-weight="600"><tspan x="-20.027" y="0">Entrar</tspan></text>
    <text id="Esqueceu_a_senha_" data-name="Esqueceu a senha?" transform="translate(284 361)" fill="#04b2d9" font-size="11" font-family="Raleway"><tspan x="-49.11" y="0">Esqueceu a senha?</tspan></text>
    <text id="Não_tem_uma_conta_" data-name="Não tem uma conta?" transform="translate(180 529)" fill="#828181" font-size="11" font-family="Raleway"><tspan x="-53.009" y="0">Não tem uma conta?</tspan></text>
    <g id="Grupo_35" data-name="Grupo 35" transform="translate(-3724.773 5120.093)">
      <g id="Grupo_34" data-name="Grupo 34" transform="translate(3852.773 -5090.216)">
        <g id="Grupo_33" data-name="Grupo 33" transform="translate(5.123 5.123)">
          <g id="Grupo_32" data-name="Grupo 32" transform="translate(0)" clip-path="url(#clip-path)">
            <g id="Grupo_27" data-name="Grupo 27" transform="translate(-19.092 -25.153)">
              <g id="Grupo_22" data-name="Grupo 22" transform="translate(0.104)">
                <g id="Grupo_19" data-name="Grupo 19">
                  <path id="Caminho_16" data-name="Caminho 16" d="M3793.2-5139.694l-65.872-65.872,65.872-65.872,65.872,65.872Zm-60.332-65.872,60.332,60.332,60.332-60.332L3793.2-5265.9Z" transform="translate(-3727.329 5271.438)" fill="#04b2d9"/>
                </g>
                <g id="Grupo_20" data-name="Grupo 20" transform="translate(12.62 12.62)">
                  <path id="Caminho_17" data-name="Caminho 17" d="M3894.763-5050.753,3841.511-5104l53.251-53.251L3948.014-5104ZM3847.051-5104l47.711,47.711L3942.474-5104l-47.711-47.711Z" transform="translate(-3841.511 5157.256)" fill="#04b2d9"/>
                </g>
                <g id="Grupo_21" data-name="Grupo 21" transform="translate(24.938 24.938)">
                  <path id="Caminho_18" data-name="Caminho 18" d="M3993.886-4963.947l-40.934-40.934,40.934-40.934,40.934,40.934Zm-35.394-40.934,35.394,35.394,35.394-35.394-35.394-35.394Z" transform="translate(-3952.952 5045.815)" fill="#04b2d9"/>
                </g>
              </g>
              <g id="Grupo_26" data-name="Grupo 26" transform="translate(0 66.201)">
                <g id="Grupo_23" data-name="Grupo 23">
                  <path id="Caminho_19" data-name="Caminho 19" d="M3792.26-4540.742l-65.872-65.872,65.872-65.872,65.872,65.872Zm-60.332-65.872,60.332,60.332,60.332-60.332-60.332-60.332Z" transform="translate(-3726.388 4672.486)" fill="#04b2d9"/>
                </g>
                <g id="Grupo_24" data-name="Grupo 24" transform="translate(12.62 12.62)">
                  <path id="Caminho_20" data-name="Caminho 20" d="M3893.821-4451.8l-53.252-53.252,53.252-53.251,53.252,53.251Zm-47.711-53.252,47.711,47.711,47.711-47.711-47.711-47.711Z" transform="translate(-3840.569 4558.304)" fill="#04b2d9"/>
                </g>
                <g id="Grupo_25" data-name="Grupo 25" transform="translate(24.938 24.938)">
                  <path id="Caminho_21" data-name="Caminho 21" d="M3992.945-4364.995l-40.934-40.934,40.934-40.934,40.934,40.934Zm-35.394-40.934,35.394,35.394,35.394-35.394-35.394-35.394Z" transform="translate(-3952.011 4446.863)" fill="#04b2d9"/>
                </g>
              </g>
            </g>
            <g id="Grupo_28" data-name="Grupo 28" transform="translate(20.644 65.01)">
              <rect id="Retângulo_13" data-name="Retângulo 13" width="3.584" height="37.077" transform="translate(28.752 26.217) rotate(135)" fill="#04b2d9"/>
            </g>
            <g id="Grupo_29" data-name="Grupo 29" transform="translate(78.149 33.801)">
              <rect id="Retângulo_14" data-name="Retângulo 14" width="3.584" height="18.483" transform="translate(15.604 13.069) rotate(135)" fill="#04b2d9"/>
            </g>
            <g id="Grupo_30" data-name="Grupo 30" transform="translate(44.985 63.174)">
              <rect id="Retângulo_15" data-name="Retângulo 15" width="3.584" height="38.745" transform="translate(27.397) rotate(45)" fill="#04b2d9"/>
            </g>
            <g id="Grupo_31" data-name="Grupo 31" transform="translate(0.648 33.165)">
              <rect id="Retângulo_16" data-name="Retângulo 16" width="3.584" height="18.483" transform="translate(13.069 0) rotate(45)" fill="#04b2d9"/>
            </g>
          </g>
        </g>
      </g>
      <rect id="Retângulo_18" data-name="Retângulo 18" width="10.238" height="10.238" transform="translate(3904.773 -5067.161) rotate(45)" fill="#04b2d9"/>
    </g>
  </g>
</svg>
