<svg xmlns="http://www.w3.org/2000/svg" width="106" height="23" viewBox="0 0 106 23">
  <g id="Grupo_173" data-name="Grupo 173" transform="translate(-0.083)">
    <g id="Retângulo_50" data-name="Retângulo 50" transform="translate(0.083)" fill="none" stroke="#04b2d9" stroke-width="1">
      <rect width="106" height="23" rx="5" stroke="none"/>
      <rect x="0.5" y="0.5" width="105" height="22" rx="4.5" fill="none"/>
    </g>
    <text id="_300_candidatos" data-name="300 candidatos" transform="translate(22.083 15)" fill="#04b2d9" font-size="10" font-family="Raleway-Medium, Raleway" font-weight="500"><tspan x="0" y="0">300 candidatos</tspan></text>
    <g id="Grupo_149" data-name="Grupo 149" transform="translate(7.667 4.792)">
      <g id="Grupo_148" data-name="Grupo 148" transform="translate(0 0)">
        <path id="Caminho_67" data-name="Caminho 67" d="M152.479,99.742l-1.785-.793a.35.35,0,0,1-.207-.319v-.49a2.6,2.6,0,0,0,.985-2.038v-.69a.636.636,0,0,0,.328-.556v-.067a2.608,2.608,0,0,0-2.605-2.605h-.657a2.608,2.608,0,0,0-2.605,2.605V95.4a.644.644,0,0,0,.245.516.6.6,0,0,0,.083.054V96.1a2.6,2.6,0,0,0,.985,2.038v.49a.35.35,0,0,1-.208.319l-1.785.793a1.622,1.622,0,0,0-.962,1.481v4.071a.307.307,0,0,0,.614,0v-4.071a1.015,1.015,0,0,1,.006-.106l.822.822a.673.673,0,0,1,.2.479v2.875a.307.307,0,1,0,.614,0v-2.875a1.283,1.283,0,0,0-.378-.914l-.98-.98a1,1,0,0,1,.315-.221l1.755-.78,1.3,1.3v4.469a.307.307,0,1,0,.614,0v-4.468l1.3-1.3,1.755.78a1,1,0,0,1,.315.221l-.98.98a1.283,1.283,0,0,0-.378.914v2.875a.307.307,0,1,0,.614,0v-2.875a.673.673,0,0,1,.2-.479l.822-.822a1,1,0,0,1,.006.106v4.071a.307.307,0,1,0,.614,0v-4.071A1.622,1.622,0,0,0,152.479,99.742Zm-3.612.521-1.142-1.142a.962.962,0,0,0,.136-.492V98.5a2.6,2.6,0,0,0,2.012,0v.125a.962.962,0,0,0,.136.492Zm0-2.171a1.993,1.993,0,0,1-1.991-1.991v-.138a1.816,1.816,0,0,0,.558-.362.307.307,0,0,0-.417-.451,1.1,1.1,0,0,1-.456.272l-.008,0a.062.062,0,0,1-.005-.028v-.608a1.993,1.993,0,0,1,1.991-1.991h.657a1.993,1.993,0,0,1,1.991,1.991v.067a.02.02,0,0,1-.014.02,3.25,3.25,0,0,1-3.073-.633.307.307,0,0,0-.434.434,3.846,3.846,0,0,0,3.193.869V96.1A1.993,1.993,0,0,1,148.867,98.093Z" transform="translate(-144.292 -92.184)" fill="#04b2d9"/>
      </g>
    </g>
  </g>
</svg>
