<svg xmlns="http://www.w3.org/2000/svg" width="74" height="23" viewBox="0 0 74 23">
  <g id="Grupo_174" data-name="Grupo 174" transform="translate(0.208)">
    <g id="Retângulo_43" data-name="Retângulo 43" transform="translate(-0.208)" fill="none" stroke="#04b2d9" stroke-width="1">
      <rect width="74" height="23" rx="5" stroke="none"/>
      <rect x="0.5" y="0.5" width="73" height="22" rx="4.5" fill="none"/>
    </g>
    <text id="Há_3_dias" data-name="Há 3 dias" transform="translate(21.792 15)" fill="#04b2d9" font-size="10" font-family="Raleway-Medium, Raleway" font-weight="500"><tspan x="0" y="0">Há 3 dias</tspan></text>
    <g id="clock-circular-outline" transform="translate(7.667 6.708)">
      <g id="Grupo_164" data-name="Grupo 164">
        <path id="Caminho_87" data-name="Caminho 87" d="M4.552,0A4.552,4.552,0,1,0,9.1,4.552,4.557,4.557,0,0,0,4.552,0Zm0,8.136A3.583,3.583,0,1,1,8.136,4.552,3.588,3.588,0,0,1,4.552,8.136Z" fill="#04b2d9"/>
        <path id="Caminho_88" data-name="Caminho 88" d="M46.861,19.665H44.816V17.2a.375.375,0,1,0-.75,0v2.835a.375.375,0,0,0,.375.375h2.421a.375.375,0,1,0,0-.75Z" transform="translate(-39.937 -15.253)" fill="#04b2d9"/>
      </g>
    </g>
  </g>
</svg>
